<svg
    xmlns="http://www.w3.org/2000/svg"
    aria-hidden="true"
    style="display: none;"
>

    <symbol id="icon-majesticons_logout" viewBox="0 0 32 32">
        <path
            d="M8 2.667c-1.061 0-2.078 0.421-2.828 1.172s-1.172 1.768-1.172 2.828v18.667c0 1.061 0.421 2.078 1.172 2.828s1.768 1.172 2.828 1.172h8c1.061 0 2.078-0.421 2.828-1.172s1.172-1.768 1.172-2.828v-18.667c0-1.061-0.421-2.078-1.172-2.828s-1.768-1.172-2.828-1.172h-8zM21.724 9.724c0.25-0.25 0.589-0.39 0.943-0.39s0.693 0.14 0.943 0.39l5.333 5.333c0.25 0.25 0.39 0.589 0.39 0.943s-0.14 0.693-0.39 0.943l-5.333 5.333c-0.252 0.243-0.588 0.377-0.938 0.374s-0.684-0.143-0.931-0.391-0.387-0.582-0.39-0.931c-0.003-0.35 0.131-0.686 0.374-0.938l3.057-3.057h-11.448c-0.354 0-0.693-0.14-0.943-0.391s-0.391-0.589-0.391-0.943c0-0.354 0.14-0.693 0.391-0.943s0.589-0.391 0.943-0.391h11.448l-3.057-3.057c-0.25-0.25-0.39-0.589-0.39-0.943s0.14-0.693 0.39-0.943z"></path>
    </symbol>

    <symbol id="icon-Vector-46" viewBox="0 0 3 32">
        <path stroke-linejoin="miter" stroke-linecap="butt" stroke-miterlimit="4"
            stroke-width="2.6667" d="M1.333 0v32"></path>
    </symbol>

</svg>